<?xml version="1.0" standalone="no"?>
<!DOCTYPE svg PUBLIC "-//W3C//DTD SVG 20010904//EN"
 "http://www.w3.org/TR/2001/REC-SVG-20010904/DTD/svg10.dtd">
<svg version="1.0" xmlns="http://www.w3.org/2000/svg"
 width="260.000000pt" height="260.000000pt" viewBox="0 0 260.000000 260.000000"
 preserveAspectRatio="xMidYMid meet">
<metadata>
Created by potrace 1.14, written by Peter Selinger 2001-2017
</metadata>
<g transform="translate(0.000000,260.000000) scale(0.100000,-0.100000)"
fill="#000000" stroke="none">
<path d="M871 2580 c-152 -55 -258 -185 -281 -345 -13 -96 -13 -1789 0 -1875
22 -140 111 -260 237 -322 l68 -33 700 0 700 0 66 32 c81 40 169 129 207 210
l27 58 3 969 c3 1049 4 1024 -50 1116 -30 50 -106 127 -153 154 -95 56 -93 56
-809 56 -630 -1 -664 -2 -715 -20z m1022 -534 c91 -37 130 -166 76 -243 -8
-11 -114 -127 -236 -258 -123 -132 -223 -242 -223 -245 0 -3 105 -119 234
-257 199 -215 235 -258 244 -295 29 -113 -66 -220 -180 -205 -21 3 -50 12 -63
21 -43 28 -607 640 -622 673 -16 39 -17 79 -2 121 14 42 593 662 639 684 42
21 89 23 133 4z"/>
<path d="M100 2259 c-14 -5 -36 -20 -48 -32 -54 -50 -52 -10 -52 -930 l0 -854
22 -33 c34 -50 71 -72 125 -77 65 -5 120 26 151 87 l22 44 0 839 c0 932 4 880
-67 934 -38 29 -111 40 -153 22z"/>
</g>
</svg>
